<svg version="1.1" xmlns="http://www.w3.org/2000/svg" width="32" height="32" viewBox="0 0 32 32">
<title>users</title>
<path d="M27.676 14.781c0.937-0.659 1.558-1.754 1.558-2.988 0-2.020-1.634-3.653-3.653-3.653s-3.653 1.634-3.653 3.653c0 1.235 0.614 2.33 1.558 2.988-0.804 0.279-1.539 0.709-2.159 1.266-0.855-0.728-1.861-1.285-2.963-1.615 1.336-0.811 2.235-2.286 2.235-3.964 0-2.558-2.070-4.629-4.629-4.629s-4.629 2.077-4.629 4.629c0 1.678 0.893 3.153 2.235 3.964-1.089 0.329-2.083 0.88-2.932 1.595-0.62-0.545-1.342-0.969-2.134-1.241 0.937-0.659 1.558-1.754 1.558-2.988 0-2.020-1.634-3.653-3.653-3.653s-3.653 1.634-3.653 3.653c0 1.235 0.614 2.33 1.558 2.988-2.514 0.867-4.318 3.254-4.318 6.059v0.418c0 0.013 0.013 0.025 0.025 0.025h7.744c-0.044 0.348-0.070 0.709-0.070 1.070v0.431c0 1.861 1.507 3.368 3.368 3.368h9.814c1.861 0 3.368-1.507 3.368-3.368v-0.431c0-0.361-0.025-0.722-0.070-1.070h7.794c0.013 0 0.025-0.013 0.025-0.025v-0.418c-0.013-2.811-1.811-5.198-4.325-6.066zM22.94 11.786c0-1.456 1.184-2.64 2.64-2.64s2.64 1.184 2.64 2.64c0 1.437-1.159 2.609-2.59 2.64-0.019 0-0.032 0-0.051 0s-0.032 0-0.051 0c-1.437-0.025-2.59-1.197-2.59-2.64zM12.341 10.47c0-1.994 1.621-3.615 3.615-3.615s3.615 1.621 3.615 3.615c0 1.925-1.513 3.501-3.406 3.609-0.070 0-0.139 0-0.209 0s-0.139 0-0.209 0c-1.893-0.108-3.406-1.684-3.406-3.609zM3.755 11.786c0-1.456 1.184-2.64 2.64-2.64s2.64 1.184 2.64 2.64c0 1.437-1.159 2.609-2.59 2.64-0.019 0-0.032 0-0.051 0s-0.032 0-0.051 0c-1.431-0.025-2.59-1.197-2.59-2.64zM7.946 20.271h-6.92c0.285-2.697 2.564-4.812 5.331-4.831 0.013 0 0.025 0 0.038 0s0.025 0 0.038 0c1.317 0.006 2.52 0.494 3.451 1.285-0.912 0.988-1.589 2.203-1.938 3.546zM23.225 22.791c0 1.298-1.057 2.355-2.355 2.355h-9.814c-1.298 0-2.355-1.057-2.355-2.355v-0.431c0-3.932 3.14-7.149 7.047-7.262 0.070 0.006 0.146 0.006 0.215 0.006s0.146 0 0.215-0.006c3.907 0.114 7.047 3.331 7.047 7.262v0.431zM23.978 20.271c-0.348-1.336-1.013-2.533-1.919-3.52 0.937-0.811 2.153-1.298 3.482-1.311 0.013 0 0.025 0 0.038 0s0.025 0 0.038 0c2.767 0.019 5.046 2.134 5.331 4.831h-6.971z"></path>
</svg>
